<?xml version="1.0" encoding="iso-8859-1"?>
<!-- Generator: Adobe Illustrator 19.0.0, SVG Export Plug-In . SVG Version: 6.00 Build 0)  -->
<svg version="1.1" id="Layer_1" xmlns="http://www.w3.org/2000/svg" xmlns:xlink="http://www.w3.org/1999/xlink" x="0px" y="0px"
	 viewBox="0 0 512 512" style="enable-background:new 0 0 512 512;" xml:space="preserve">
<g transform="translate(1 1)">
	<path style="fill:#7383BF;" d="M281.483,494.228l104.165-179.2c4.414-7.062,15.007-7.062,18.538,0l49.434,85.628
		c30.897-40.607,48.552-90.924,48.552-145.655C502.172,118.172,391.828,7.828,255,7.828S7.828,118.172,7.828,255
		S118.172,502.172,255,502.172c8.828,0,16.772,0,24.717-0.883C279.717,498.641,280.6,496.876,281.483,494.228"/>
	<g>
		<path style="fill:#434C6D;" d="M255,511C113.759,511-1,396.241-1,255S113.759-1,255-1s256,114.759,256,256
			c0,54.731-16.772,106.814-49.434,150.952l-7.945,10.593l-56.497-97.103c-0.883-0.883-0.883-0.883-1.766-0.883l0,0
			c-0.883,0-0.883,0-1.766,0.883l-104.165,179.2v0.883l0.883,8.828l-8.828,0.883C272.655,511,263.828,511,255,511z M281.483,494.228
			L281.483,494.228L281.483,494.228z M255,16.655C123.469,16.655,16.655,123.469,16.655,255S123.469,493.345,255,493.345
			c6.179,0,11.476,0,17.655-0.883c0-0.883,0.883-1.766,0.883-2.648l105.048-179.2c3.531-6.179,9.71-9.71,16.772-9.71l0,0
			c7.062,0,13.241,3.531,16.772,9.71l42.372,73.269c25.6-37.959,38.841-82.979,38.841-128.883
			C493.345,123.469,386.531,16.655,255,16.655z"/>
		<path style="fill:#434C6D;" d="M255,511c-5.297,0-8.828-3.531-8.828-8.828V7.828C246.172,2.531,249.703-1,255-1
			c5.297,0,8.828,3.531,8.828,8.828v494.345C263.828,507.469,260.297,511,255,511z"/>
		<path style="fill:#434C6D;" d="M255,511c-0.883,0-2.648,0-3.531,0h-5.297l-2.648-1.766
			C166.724,446.559,122.586,353.869,122.586,255S166.724,63.441,243.524,0.766L246.172-1h5.297c0.883,0,2.648,0,3.531,0
			c5.297,0,8.828,3.531,8.828,8.828s-3.531,8.828-8.828,8.828c-0.883,0-1.766,0-2.648,0C180.848,75.8,140.241,162.31,140.241,255
			s40.607,179.2,112.11,238.345c0.883,0,1.766,0,2.648,0c5.297,0,8.828,3.531,8.828,8.828S260.297,511,255,511z"/>
		<path style="fill:#434C6D;" d="M255,149.069c-66.207,0-129.766-19.421-184.497-56.497c-3.531-3.531-4.414-8.828-1.766-12.359
			c2.648-4.414,7.945-5.297,12.359-2.648c51.2,35.31,112.11,53.848,173.903,53.848s122.703-18.538,173.903-53.848
			c4.414-2.648,9.71-1.766,12.359,2.648c2.648,4.414,1.766,9.71-2.648,12.359C384.766,129.648,321.207,149.069,255,149.069z"/>
		<path style="fill:#434C6D;" d="M70.503,428.903c-2.648,0-5.297-0.883-7.062-3.531c-2.648-3.531-1.766-9.71,1.766-12.359
			c56.497-39.724,121.821-60.91,189.793-60.91c5.297,0,8.828,3.531,8.828,8.828s-3.531,8.828-8.828,8.828
			c-64.441,0-126.234,19.421-179.2,57.379C74.034,428.021,72.269,428.903,70.503,428.903z"/>
		<path style="fill:#434C6D;" d="M378.586,263.828c-5.297,0-8.828-3.531-8.828-8.828c0-92.69-40.607-179.2-112.11-238.345
			c-0.883,0-1.766,0-2.648,0c-5.297,0-8.828-3.531-8.828-8.828S249.703-1,255-1c0.883,0,2.648,0,3.531,0h5.297l2.648,1.766
			C343.276,63.441,387.414,156.131,387.414,255C387.414,260.297,383.883,263.828,378.586,263.828z"/>
		<path style="fill:#434C6D;" d="M502.172,263.828H7.828C2.531,263.828-1,260.297-1,255c0-5.297,3.531-8.828,8.828-8.828h494.345
			c5.297,0,8.828,3.531,8.828,8.828C511,260.297,507.469,263.828,502.172,263.828z"/>
	</g>
	<path style="fill:#ECBA16;" d="M500.407,511H291.193c-8.828,0-13.241-8.828-9.71-16.772l104.166-179.2
		c4.414-7.062,15.007-7.062,18.538,0l104.165,179.2C513.648,502.172,508.352,511,500.407,511"/>
	<g>
		<path style="fill:#FFFFFF;" d="M396.241,449.207c-5.297,0-8.828-3.531-8.828-8.828v-70.621c0-5.297,3.531-8.828,8.828-8.828
			c5.297,0,8.828,3.531,8.828,8.828v70.621C405.069,445.676,401.538,449.207,396.241,449.207"/>
		<path style="fill:#FFFFFF;" d="M396.241,484.517c-2.648,0-4.414-0.883-6.179-2.648c-1.766-1.766-2.648-3.531-2.648-6.179
			c0-2.648,0.883-4.414,2.648-6.179c3.531-3.531,8.828-3.531,12.359,0c1.766,1.766,2.648,4.414,2.648,6.179
			c0,1.766-0.883,4.414-2.648,6.179C400.655,483.634,398.89,484.517,396.241,484.517"/>
	</g>
</g>
<g>
</g>
<g>
</g>
<g>
</g>
<g>
</g>
<g>
</g>
<g>
</g>
<g>
</g>
<g>
</g>
<g>
</g>
<g>
</g>
<g>
</g>
<g>
</g>
<g>
</g>
<g>
</g>
<g>
</g>
</svg>
